<?xml version="1.0" standalone="no"?>
<!DOCTYPE svg PUBLIC "-//W3C//DTD SVG 20010904//EN"
 "http://www.w3.org/TR/2001/REC-SVG-20010904/DTD/svg10.dtd">
<svg version="1.0" xmlns="http://www.w3.org/2000/svg"
 width="700.000000pt" height="700.000000pt" viewBox="0 0 700.000000 700.000000"
 preserveAspectRatio="xMidYMid meet">
<metadata>
Created by potrace 1.11, written by Peter Selinger 2001-2013
</metadata>
<g transform="translate(0.000000,700.000000) scale(0.100000,-0.100000)"
fill="#000000" stroke="none">
<path d="M4380 5334 c0 -625 3 -784 13 -778 47 28 319 203 351 226 51 37 83
35 142 -5 66 -46 354 -227 359 -227 3 0 5 353 5 785 l0 785 -435 0 -435 0 0
-786z"/>
<path d="M1010 5946 c-93 -25 -155 -81 -185 -165 -13 -38 -15 -280 -15 -2045
0 -2211 -4 -2059 63 -2148 18 -24 57 -56 87 -73 l55 -30 1090 -5 c600 -3 1096
-9 1103 -13 9 -7 12 440 12 2221 l0 2229 -21 19 c-20 18 -54 19 -1083 21 -815
1 -1072 -1 -1106 -11z"/>
<path d="M3813 5944 l-33 -16 0 -2235 c0 -1785 3 -2233 13 -2226 6 4 503 10
1102 13 l1090 5 55 30 c30 17 69 49 87 73 67 89 63 -62 63 2142 0 2192 4 2055
-60 2132 -17 20 -56 49 -88 65 -55 27 -64 28 -229 31 l-173 4 -2 -944 -3 -944
-27 -41 c-32 -49 -80 -73 -147 -73 -49 0 -59 6 -349 199 l-300 199 -268 -179
c-148 -99 -286 -189 -306 -200 -78 -40 -168 -18 -222 54 -21 28 -21 32 -24
978 l-2 949 -73 0 c-45 0 -84 -6 -104 -16z"/>
</g>
</svg>
